<?xml version="1.0" encoding="UTF-8" standalone="no"?>
<svg
   width="30px"
   height="30px"
   fill="none"
   version="1.1"
   id="svg1"
   sodipodi:docname="ORCID-iD_icon_edited.svg"
   inkscape:version="1.4 (e7c3feb1, 2024-10-09)"
   xmlns:inkscape="http://www.inkscape.org/namespaces/inkscape"
   xmlns:sodipodi="http://sodipodi.sourceforge.net/DTD/sodipodi-0.dtd"
   xmlns="http://www.w3.org/2000/svg"
   xmlns:svg="http://www.w3.org/2000/svg">
  <defs
     id="defs1" />
  <sodipodi:namedview
     id="namedview1"
     pagecolor="#ffffff"
     bordercolor="#000000"
     borderopacity="0.25"
     inkscape:showpageshadow="2"
     inkscape:pageopacity="0.0"
     inkscape:pagecheckerboard="0"
     inkscape:deskcolor="#d1d1d1"
     inkscape:zoom="3.4443159"
     inkscape:cx="17.710338"
     inkscape:cy="9.7261694"
     inkscape:window-width="1104"
     inkscape:window-height="512"
     inkscape:window-x="0"
     inkscape:window-y="38"
     inkscape:window-maximized="0"
     inkscape:current-layer="svg1" />
  <path
     fill-rule="evenodd"
     clip-rule="evenodd"
     d="M 16,32 C 24.837,32 32,24.837 32,16 32,7.162 24.837,0 16,0 7.162,0 0,7.162 0,16 0,24.837 7.162,32 16,32 Z M 13.363,9.637 h 5.45 c 2.539,0 4.39,0.91 5.603,2.246 1.21,1.332 1.771,3.069 1.771,4.704 0,3.572 -2.795,6.95 -7.35,6.95 H 13.363 Z M 15.788,21.3 H 18.6 c 2.109,0 3.374,-0.796 4.119,-1.765 0.754,-0.98 0.993,-2.164 0.993,-2.948 0,-1.29 -0.41,-2.463 -1.252,-3.313 -0.84,-0.847 -2.137,-1.399 -3.96,-1.399 H 15.787 V 21.3 Z M 8.363,9.675 v 13.887 h 2.425 V 9.675 Z m 2.175,13.637 h -1.926 1.925 z m 0.55,-16.175 c 0,0.824 -0.673,1.513 -1.513,1.513 -0.84,0 -1.512,-0.689 -1.512,-1.513 0,-0.838 0.674,-1.512 1.512,-1.512 0.84,0 1.513,0.689 1.513,1.513 z"
     fill="#fff"
     id="path1"
     style="fill:#e6d9ee;fill-opacity:1" />
</svg>
