<?xml version="1.0" encoding="UTF-8" standalone="no"?>
<!-- Created with Inkscape (http://www.inkscape.org/) -->

<svg
   width="50px"
   height="50px"
   viewBox="0 0 74.314817 75.83783"
   version="1.1"
   id="svg1"
   inkscape:version="1.4 (e7c3feb1, 2024-10-09)"
   sodipodi:docname="soup.svg"
   inkscape:export-filename="soup.png"
   inkscape:export-xdpi="33.492519"
   inkscape:export-ydpi="33.492519"
   xmlns:inkscape="http://www.inkscape.org/namespaces/inkscape"
   xmlns:sodipodi="http://sodipodi.sourceforge.net/DTD/sodipodi-0.dtd"
   xmlns="http://www.w3.org/2000/svg"
   xmlns:svg="http://www.w3.org/2000/svg">
  <sodipodi:namedview
     id="namedview1"
     pagecolor="#ffffff"
     bordercolor="#666666"
     borderopacity="1.0"
     inkscape:showpageshadow="2"
     inkscape:pageopacity="0.0"
     inkscape:pagecheckerboard="0"
     inkscape:deskcolor="#d1d1d1"
     inkscape:document-units="mm"
     inkscape:zoom="1.4952585"
     inkscape:cx="141.7815"
     inkscape:cy="118.70857"
     inkscape:window-width="1512"
     inkscape:window-height="840"
     inkscape:window-x="0"
     inkscape:window-y="38"
     inkscape:window-maximized="0"
     inkscape:current-layer="layer1" />
  <defs
     id="defs1">
    <inkscape:path-effect
       effect="bspline"
       id="path-effect5"
       is_visible="true"
       lpeversion="1.3"
       weight="33.333333"
       steps="2"
       helper_size="0"
       apply_no_weight="true"
       apply_with_weight="true"
       only_selected="false"
       uniform="false" />
    <inkscape:path-effect
       effect="bspline"
       id="path-effect4"
       is_visible="true"
       lpeversion="1.3"
       weight="33.333333"
       steps="2"
       helper_size="0"
       apply_no_weight="true"
       apply_with_weight="true"
       only_selected="false"
       uniform="false" />
    <inkscape:path-effect
       effect="bspline"
       id="path-effect3"
       is_visible="true"
       lpeversion="1.3"
       weight="33.333333"
       steps="2"
       helper_size="0"
       apply_no_weight="true"
       apply_with_weight="true"
       only_selected="false"
       uniform="false" />
    <inkscape:path-effect
       effect="bspline"
       id="path-effect2"
       is_visible="true"
       lpeversion="1.3"
       weight="33.333333"
       steps="2"
       helper_size="0"
       apply_no_weight="true"
       apply_with_weight="true"
       only_selected="false"
       uniform="false" />
    <mask
       maskUnits="userSpaceOnUse"
       id="mask1">
      <ellipse
         style="fill:#ffb2b2;fill-opacity:0.334146;stroke:none;stroke-width:3.15188;stroke-dasharray:18.9113, 6.30375"
         id="ellipse1"
         cx="93.172516"
         cy="111.13701"
         rx="58.190617"
         ry="25.929806" />
    </mask>
    <mask
       maskUnits="userSpaceOnUse"
       id="mask1-5">
      <ellipse
         style="fill:#ffb2b2;fill-opacity:0.334146;stroke:none;stroke-width:3.15188;stroke-dasharray:18.9113, 6.30375"
         id="ellipse1-4"
         cx="93.172516"
         cy="111.13701"
         rx="58.190617"
         ry="25.929806" />
    </mask>
    <inkscape:path-effect
       effect="bspline"
       id="path-effect5-5"
       is_visible="true"
       lpeversion="1.3"
       weight="33.333333"
       steps="2"
       helper_size="0"
       apply_no_weight="true"
       apply_with_weight="true"
       only_selected="false"
       uniform="false" />
    <clipPath
       clipPathUnits="userSpaceOnUse"
       id="clipPath160">
      <ellipse
         style="fill:#6d4e83;fill-opacity:1;stroke:none;stroke-width:6.95931;stroke-dasharray:41.7559, 13.9187"
         id="ellipse160"
         clip-path="url(#clipPath3-1)"
         ry="51.048"
         rx="51.047848"
         cy="81.218124"
         cx="85.803825"
         transform="translate(2.2369385e-5,-1.2786865e-4)" />
    </clipPath>
    <clipPath
       clipPathUnits="userSpaceOnUse"
       id="clipPath3-1">
      <ellipse
         style="fill:#000000;stroke:none;stroke-width:6.95931;stroke-dasharray:41.756, 13.9187"
         id="ellipse3-3"
         cx="85.803825"
         cy="81.218124"
         rx="51.047848"
         ry="51.047997" />
    </clipPath>
    <clipPath
       clipPathUnits="userSpaceOnUse"
       id="clipPath5">
      <ellipse
         style="fill:#6d4e83;fill-opacity:0.539024;stroke:none;stroke-width:6.95931;stroke-dasharray:41.7559, 13.9187"
         id="ellipse5"
         clip-path="url(#clipPath160)"
         ry="51.048"
         rx="51.047848"
         cy="81.218124"
         cx="85.803825"
         transform="matrix(-0.86214555,0,0,0.74349269,173.4185,8.0329141)"
         d="M 136.85167,81.218124 A 51.047848,51.048 0 0 1 85.803825,132.26612 51.047848,51.048 0 0 1 34.755978,81.218124 a 51.047848,51.048 0 0 1 51.047847,-51.048 51.047848,51.048 0 0 1 51.047845,51.048 z" />
    </clipPath>
    <clipPath
       clipPathUnits="userSpaceOnUse"
       id="clipPath6">
      <ellipse
         style="fill:#6d4e83;fill-opacity:0.539024;stroke:none;stroke-width:6.95931;stroke-dasharray:41.7559, 13.9187"
         id="ellipse6"
         clip-path="url(#clipPath160)"
         ry="51.048"
         rx="51.047848"
         cy="81.218124"
         cx="85.803825"
         transform="matrix(0.72789375,0,0,0.74349269,36.378914,-1.9061959)"
         d="M 136.85167,81.218124 A 51.047848,51.048 0 0 1 85.803825,132.26612 51.047848,51.048 0 0 1 34.755978,81.218124 a 51.047848,51.048 0 0 1 51.047847,-51.048 51.047848,51.048 0 0 1 51.047845,51.048 z" />
    </clipPath>
    <clipPath
       clipPathUnits="userSpaceOnUse"
       id="clipPath7">
      <ellipse
         style="fill:#6d4e83;fill-opacity:0.539024;stroke:none;stroke-width:6.95931;stroke-dasharray:41.7559, 13.9187"
         id="ellipse7"
         clip-path="url(#clipPath160)"
         ry="51.048"
         rx="51.047848"
         cy="81.218124"
         cx="85.803825"
         transform="matrix(0.72789375,0,0,0.74349269,30.893519,23.751296)"
         d="M 136.85167,81.218124 A 51.047848,51.048 0 0 1 85.803825,132.26612 51.047848,51.048 0 0 1 34.755978,81.218124 a 51.047848,51.048 0 0 1 51.047847,-51.048 51.047848,51.048 0 0 1 51.047845,51.048 z" />
    </clipPath>
    <clipPath
       clipPathUnits="userSpaceOnUse"
       id="clipPath8">
      <ellipse
         style="fill:#6d4e83;fill-opacity:0.539024;stroke:none;stroke-width:6.95931;stroke-dasharray:41.7559, 13.9187"
         id="ellipse8"
         clip-path="url(#clipPath160)"
         ry="51.048"
         rx="51.047848"
         cy="81.218124"
         cx="85.803825"
         transform="matrix(0.72789375,0,0,0.74349269,30.893519,23.751296)"
         d="M 136.85167,81.218124 A 51.047848,51.048 0 0 1 85.803825,132.26612 51.047848,51.048 0 0 1 34.755978,81.218124 a 51.047848,51.048 0 0 1 51.047847,-51.048 51.047848,51.048 0 0 1 51.047845,51.048 z" />
    </clipPath>
    <clipPath
       clipPathUnits="userSpaceOnUse"
       id="clipPath9">
      <ellipse
         style="fill:#6d4e83;fill-opacity:0.539024;stroke:none;stroke-width:6.95931;stroke-dasharray:41.7559, 13.9187"
         id="ellipse9"
         clip-path="url(#clipPath160)"
         ry="51.048"
         rx="51.047848"
         cy="81.218124"
         cx="85.803825"
         transform="matrix(0.72789375,0,0,0.74349269,30.893519,23.751296)"
         d="M 136.85167,81.218124 A 51.047848,51.048 0 0 1 85.803825,132.26612 51.047848,51.048 0 0 1 34.755978,81.218124 a 51.047848,51.048 0 0 1 51.047847,-51.048 51.047848,51.048 0 0 1 51.047845,51.048 z" />
    </clipPath>
    <clipPath
       clipPathUnits="userSpaceOnUse"
       id="clipPath10">
      <ellipse
         style="fill:#6d4e83;fill-opacity:0.539024;stroke:none;stroke-width:6.95931;stroke-dasharray:41.7559, 13.9187"
         id="ellipse10"
         clip-path="url(#clipPath160)"
         ry="51.048"
         rx="51.047848"
         cy="81.218124"
         cx="85.803825"
         transform="matrix(0.85710254,0,0,1.1220944,18.892305,-13.675989)" />
    </clipPath>
    <clipPath
       clipPathUnits="userSpaceOnUse"
       id="clipPath11">
      <ellipse
         style="fill:#6d4e83;fill-opacity:0.539024;stroke:none;stroke-width:6.95931;stroke-dasharray:41.7559, 13.9187"
         id="ellipse11"
         clip-path="url(#clipPath160)"
         ry="51.048"
         rx="51.047848"
         cy="81.218124"
         cx="85.803825"
         transform="matrix(0.72789375,0,0,0.74349269,30.893519,23.751296)" />
    </clipPath>
    <clipPath
       clipPathUnits="userSpaceOnUse"
       id="clipPath12">
      <ellipse
         style="fill:#6d4e83;fill-opacity:0.539024;stroke:none;stroke-width:6.95931;stroke-dasharray:41.7559, 13.9187"
         id="ellipse12"
         clip-path="url(#clipPath160)"
         ry="51.048"
         rx="51.047848"
         cy="81.218124"
         cx="85.803825"
         transform="matrix(0.72789375,0,0,0.74349269,30.893519,23.751296)" />
    </clipPath>
    <clipPath
       clipPathUnits="userSpaceOnUse"
       id="clipPath13">
      <ellipse
         style="fill:#6d4e83;fill-opacity:0.539024;stroke:none;stroke-width:6.95931;stroke-dasharray:41.7559, 13.9187"
         id="ellipse13"
         clip-path="url(#clipPath160)"
         ry="51.048"
         rx="51.047848"
         cy="81.218124"
         cx="85.803825"
         transform="matrix(0.72789375,0,0,0.74349269,30.893519,23.751296)" />
    </clipPath>
  </defs>
  <g
     inkscape:label="Layer 1"
     inkscape:groupmode="layer"
     id="layer1"
     transform="translate(-56.192178,-46.182563)">
    <path
       id="path1"
       clip-path="url(#clipPath13)"
       style="fill:#a48ab6;fill-opacity:1;stroke:none;stroke-width:3;stroke-dasharray:18, 6.00001"
       d="M 129.50295 91.313658 A 60.268947 26.927992 0 0 1 93.261233 96.744851 A 60.268947 26.927992 0 0 1 57.208137 91.370502 A 36.779881 37.166019 0 0 0 93.3496 122.02031 A 36.779881 37.166019 0 0 0 129.50295 91.313658 z " />
    <ellipse
       style="fill:#6d4e83;fill-opacity:1;stroke:none;stroke-width:3.15188;stroke-dasharray:18.9113, 6.30376"
       id="path1-0-1"
       cx="93.349464"
       cy="70.815002"
       rx="58.190617"
       ry="25.929806"
       mask="url(#mask1)"
       clip-path="url(#clipPath11)" />
    <ellipse
       style="fill:#6d4e83;fill-opacity:1;stroke:none;stroke-width:3.15188;stroke-dasharray:18.9113, 6.30376"
       id="path1-0-1-6"
       cx="93.349464"
       cy="70.815002"
       rx="58.190617"
       ry="25.929806"
       mask="url(#mask1-5)"
       transform="matrix(0.84924932,0,0,0.66259368,14.849242,32.81292)"
       clip-path="url(#clipPath10)" />
    <path
       style="fill:none;stroke:#eee9f2;stroke-width:0.865;stroke-linecap:butt;stroke-linejoin:miter;stroke-opacity:1;stroke-dasharray:none"
       d="m 75.733838,93.782556 c 2.536258,-0.707793 5.072516,-1.415586 7.667783,-1.504055 2.595266,-0.08847 5.249437,0.442366 5.927726,1.120676 0.678288,0.67831 -0.619306,1.504051 -1.887447,1.622011 -1.268141,0.11796 -2.506754,-0.471856 -2.152838,-1.445085 0.353916,-0.973229 2.300307,-2.329803 4.777613,-2.388774 2.477306,-0.05897 5.485364,1.179642 8.021645,1.651501 2.53628,0.471858 4.60063,0.176952 4.89553,-0.412885 0.2949,-0.589836 -1.17964,-1.474559 -2.80168,-1.268107 -1.622047,0.206452 -3.391494,1.504047 -2.683669,2.329808 0.707825,0.825762 3.892829,1.179652 6.724029,0.973205 2.83119,-0.206446 5.30842,-0.973208 7.34334,-1.356596 2.03492,-0.383387 3.62742,-0.383387 4.71861,-0.353895 1.09119,0.02949 1.681,0.08847 2.27083,0.147456"
       id="path2"
       inkscape:path-effect="#path-effect2"
       inkscape:original-d="m 75.733838,93.782556 c 2.536258,-0.707792 5.072517,-1.415584 7.608773,-2.123379 2.654276,0.530857 5.308447,1.061691 7.96267,1.592535 -1.297646,0.825775 -2.59524,1.651516 -3.89286,2.477275 -1.238662,-0.589838 -2.477275,-1.179655 -3.715914,-1.769483 1.946471,-1.35663 3.892862,-2.713204 5.839294,-4.069807 3.00818,1.238662 6.016238,2.477275 9.024358,3.715911 2.064441,-0.294918 4.128791,-0.589828 6.193191,-0.88474 -1.4746,-0.884759 -2.94914,-1.769483 -4.42371,-2.654223 -1.769516,1.297646 -3.538965,2.595239 -5.308445,3.892859 3.185131,0.353904 6.370135,0.707795 9.555205,1.061691 2.47732,-0.766792 4.95455,-1.533551 7.43182,-2.300327 1.59257,0 3.18507,0 4.77761,0 0.58984,0.05898 1.17965,0.117964 1.76948,0.176948"
       clip-path="url(#clipPath9)" />
    <path
       style="fill:none;stroke:#eee9f2;stroke-width:0.865;stroke-linecap:butt;stroke-linejoin:miter;stroke-opacity:1;stroke-dasharray:none"
       d="m 67.417272,93.42866 c 1.946431,-0.589828 3.892862,-1.179656 5.691852,-1.179649 1.798989,6e-6 3.450473,0.589822 4.718611,1.032195 1.268138,0.442373 2.152861,0.737281 2.919643,0.206422 0.766782,-0.530859 1.415578,-1.887432 0.973194,-2.477258 -0.442385,-0.589826 -1.975908,-0.412881 -3.656934,5e-6 -1.681026,0.412885 -3.509453,1.061682 -4.128767,1.622023 -0.619314,0.560341 -0.0295,1.032194 2.093918,1.533552 2.123414,0.501358 5.780271,1.032192 7.490768,0.442348 1.710498,-0.589845 1.474572,-2.30031 2.506792,-3.273527 1.032221,-0.973217 3.332504,-1.209144 4.246731,-0.796254 0.914227,0.412889 0.442374,1.474559 0.619331,2.359307 0.176957,0.884748 1.002699,1.592526 1.533546,1.061664 0.530846,-0.530862 0.766773,-2.300311 1.592544,-3.185051 0.825772,-0.88474 2.24133,-0.88474 3.008107,-0.766773 0.766777,0.117967 0.88474,0.353894 1.681022,0.855255 0.796281,0.501361 2.27082,1.268121 3.89286,1.386081 1.62205,0.11796 3.39149,-0.412872 4.86607,-0.294901 1.47458,0.11797 2.65422,0.884735 2.53624,1.563041 -0.11798,0.678306 -1.53354,1.268122 -3.30305,1.504053 -1.7695,0.23593 -3.89283,0.117968 -5.66233,0.147461 -1.769496,0.02949 -3.185054,0.206437 -4.453194,-0.589847 -1.268141,-0.796285 -2.38879,-2.565731 -3.509474,-3.037585 -1.120683,-0.471853 -2.241331,0.353888 -2.565732,1.179654 -0.3244,0.825767 0.147451,1.651508 1.622045,1.710484 1.474593,0.05898 3.951818,-0.648803 6.016231,-1.474571 2.064414,-0.825768 3.715894,-1.769471 5.573874,-2.123366 1.85798,-0.353894 3.92233,-0.117969 5.57386,0.383392 1.65153,0.50136 2.89014,1.26812 3.98133,1.681 1.09119,0.412881 2.0349,0.471863 3.24406,0.412878 1.20916,-0.05899 2.6837,-0.235929 3.56844,-0.265419 0.88475,-0.02949 1.17965,0.08847 1.47457,0.206438"
       id="path3"
       inkscape:path-effect="#path-effect3"
       inkscape:original-d="m 67.417272,93.42866 c 1.946431,-0.589828 3.892862,-1.179655 5.83929,-1.769483 1.651551,0.589841 3.303035,1.179655 4.954551,1.769483 0.884759,0.294921 1.769483,0.589828 2.654223,0.88474 0.648825,-1.35663 1.29762,-2.713204 1.946431,-4.069807 -1.53358,0.17695 -3.067103,0.353896 -4.600654,0.530844 -1.828501,0.648824 -3.656928,1.29762 -5.485395,1.946431 0.589839,0.471871 1.179656,0.943724 1.769483,1.415584 3.657002,0.530858 7.313859,1.061691 10.970789,1.592535 -0.235934,-1.710534 -0.47186,-3.420999 -0.707792,-5.131498 2.300372,-0.235934 4.600655,-0.471861 6.900979,-0.707792 -0.471871,1.061709 -0.943724,2.123379 -1.415584,3.185067 0.825775,0.707808 1.651516,1.415587 2.477275,2.123379 0.235934,-1.769517 0.47186,-3.538966 0.707792,-5.308446 1.415613,0 2.831171,0 4.246758,0 0.117967,0.235934 0.235932,0.47186 0.353896,0.707792 1.474597,0.766791 2.949136,1.533551 4.423706,2.300327 1.76952,-0.530855 3.53896,-1.061688 5.30845,-1.592535 1.17967,0.766792 2.35931,1.533551 3.53896,2.300327 -1.41561,0.589841 -2.83117,1.179655 -4.24676,1.769483 -2.12342,-0.117967 -4.24675,-0.235931 -6.37013,-0.353896 -1.415616,0.176951 -2.831174,0.353896 -4.246761,0.530844 -1.120693,-1.769517 -2.241343,-3.538963 -3.362015,-5.308446 -1.120696,0.825775 -2.241344,1.651516 -3.362015,2.477275 0.471871,0.825775 0.943723,1.651516 1.415584,2.477275 2.477325,-0.707808 4.95455,-1.415587 7.431826,-2.123379 1.651551,-0.943742 3.303031,-1.887448 4.954551,-2.831171 2.06444,0.235934 4.12879,0.47186 6.19319,0.707792 1.23866,0.766791 2.47727,1.533551 3.71591,2.300327 0.94374,0.05898 1.88745,0.117965 2.83117,0.176948 1.4746,-0.176951 2.94914,-0.353896 4.42371,-0.530844 0.29492,0.117967 0.58982,0.235932 0.88474,0.353896"
       clip-path="url(#clipPath8)" />
    <path
       style="fill:none;stroke:#eee9f2;stroke-width:0.865;stroke-linecap:butt;stroke-linejoin:miter;stroke-opacity:1;stroke-dasharray:none"
       d="m 70.071495,94.3134 c 2.418292,-0.707792 4.836586,-1.415584 6.959982,-1.975924 2.123397,-0.56034 3.951826,-0.973211 4.89555,-0.41286 0.943724,0.560352 1.002705,2.093872 1.857972,2.536236 0.855266,0.442364 2.506751,-0.206434 3.715904,-0.707791 1.209154,-0.501356 1.975914,-0.855245 2.919649,-0.53083 0.943734,0.324415 2.064384,1.327101 3.450495,1.622011 1.386111,0.294909 3.037596,-0.117963 4.541669,-0.176942 1.504072,-0.05898 2.860654,0.235929 4.217254,0.530843"
       id="path4"
       inkscape:path-effect="#path-effect4"
       inkscape:original-d="m 70.071495,94.3134 c 2.418292,-0.707792 4.836586,-1.415584 7.254878,-2.123376 1.828501,-0.412888 3.65693,-0.825759 5.485394,-1.238639 0.05898,1.533583 0.117965,3.067103 0.176948,4.600654 1.65155,-0.648824 3.303035,-1.29762 4.954551,-1.946431 0.766791,-0.353904 1.533551,-0.707792 2.300327,-1.061688 1.120693,1.002726 2.241343,2.005412 3.362015,3.008119 1.65155,-0.412887 3.303035,-0.825759 4.954551,-1.238639 1.356629,0.294921 2.713211,0.589828 4.069811,0.884743"
       clip-path="url(#clipPath7)" />
    <path
       style="fill:#ede8f1;fill-opacity:0.755435;stroke:none;stroke-width:0.265;stroke-linecap:butt;stroke-linejoin:miter;stroke-dasharray:none;stroke-opacity:1"
       d="m 99.297443,36.923195 c 0.08847,-0.294914 0.20644,1.651517 0.973227,3.627458 0.76679,1.975942 2.18235,3.981318 3.09658,5.868782 0.91424,1.887464 1.32711,3.65691 0.76676,5.57387 -0.56035,1.91696 -2.09387,3.981315 -3.12607,5.927764 -1.032206,1.94645 -1.56304,3.774877 -1.710494,3.420956 -0.147455,-0.353922 0.08847,-2.890129 0.589833,-5.043016 0.501361,-2.152888 1.268121,-3.922334 1.356591,-5.691834 0.0885,-1.7695 -0.50135,-3.538948 -0.97322,-4.925052 -0.471862,-1.386104 -0.82575,-2.388791 -0.973206,-4.158299 -0.147456,-1.769508 -0.08848,-4.305716 -10e-7,-4.600629 z"
       id="path5"
       inkscape:path-effect="#path-effect5"
       inkscape:original-d="m 99.267951,34.68185 c 0.117966,1.946431 0.235931,3.892862 0.353898,5.839293 1.415611,2.005452 2.831171,4.010827 4.246751,6.016239 0.41289,1.769517 0.82576,3.538963 1.23864,5.308446 -1.53358,2.064438 -3.0671,4.128792 -4.60065,6.193187 -0.530855,1.828504 -1.06169,3.656931 -1.592535,5.485397 0.235936,-2.536309 0.471863,-5.072516 0.707794,-7.608774 0.766791,-1.769517 1.533551,-3.538964 2.300331,-5.308446 -0.58984,-1.769518 -1.17966,-3.538965 -1.76949,-5.308447 -0.353899,-1.002727 -0.707789,-2.005413 -1.061685,-3.00812 0.05898,-2.536309 0.117964,-5.072517 0.176946,-7.608775 z"
       transform="matrix(1.375687,0,0,1.0939184,-42.756413,19.892192)"
       clip-path="url(#clipPath6)" />
    <path
       style="fill:#ede8f1;fill-opacity:0.755435;stroke:none;stroke-width:0.265;stroke-linecap:butt;stroke-linejoin:miter;stroke-dasharray:none;stroke-opacity:1"
       d="m 99.297443,36.923195 c 0.08847,-0.294914 0.20644,1.651517 0.973227,3.627458 0.76679,1.975942 2.18235,3.981318 3.09658,5.868782 0.91424,1.887464 1.32711,3.65691 0.76676,5.57387 -0.56035,1.91696 -2.09387,3.981315 -3.12607,5.927764 -1.032206,1.94645 -1.56304,3.774877 -1.710494,3.420956 -0.147455,-0.353922 0.08847,-2.890129 0.589833,-5.043016 0.501361,-2.152888 1.268121,-3.922334 1.356591,-5.691834 0.0885,-1.7695 -0.50135,-3.538948 -0.97322,-4.925052 -0.471862,-1.386104 -0.82575,-2.388791 -0.973206,-4.158299 -0.147456,-1.769508 -0.08848,-4.305716 -10e-7,-4.600629 z"
       id="path5-2"
       inkscape:path-effect="#path-effect5-5"
       inkscape:original-d="m 99.267951,34.68185 c 0.117966,1.946431 0.235931,3.892862 0.353898,5.839293 1.415611,2.005452 2.831171,4.010827 4.246751,6.016239 0.41289,1.769517 0.82576,3.538963 1.23864,5.308446 -1.53358,2.064438 -3.0671,4.128792 -4.60065,6.193187 -0.530855,1.828504 -1.06169,3.656931 -1.592535,5.485397 0.235936,-2.536309 0.471863,-5.072516 0.707794,-7.608774 0.766791,-1.769517 1.533551,-3.538964 2.300331,-5.308446 -0.58984,-1.769518 -1.17966,-3.538965 -1.76949,-5.308447 -0.353899,-1.002727 -0.707789,-2.005413 -1.061685,-3.00812 0.05898,-2.536309 0.117964,-5.072517 0.176946,-7.608775 z"
       transform="matrix(-1.3224289,0,0,1.0505715,224.74343,12.61399)"
       clip-path="url(#clipPath5)" />
  </g>
</svg>
