<?xml version="1.0" encoding="UTF-8" standalone="no"?>
<!-- Created with Inkscape (http://www.inkscape.org/) -->

<svg
   width="102.0957mm"
   height="102.09587mm"
   viewBox="0 0 102.0957 102.09587"
   version="1.1"
   id="svg1"
   inkscape:version="1.3.2 (091e20e, 2023-11-25)"
   sodipodi:docname="yarn.svg"
   inkscape:export-filename="yarn.png"
   inkscape:export-xdpi="300"
   inkscape:export-ydpi="300"
   xmlns:inkscape="http://www.inkscape.org/namespaces/inkscape"
   xmlns:sodipodi="http://sodipodi.sourceforge.net/DTD/sodipodi-0.dtd"
   xmlns="http://www.w3.org/2000/svg"
   xmlns:svg="http://www.w3.org/2000/svg">
  <sodipodi:namedview
     id="namedview1"
     pagecolor="#ffffff"
     bordercolor="#666666"
     borderopacity="1.0"
     inkscape:showpageshadow="2"
     inkscape:pageopacity="0.0"
     inkscape:pagecheckerboard="0"
     inkscape:deskcolor="#d1d1d1"
     inkscape:document-units="mm"
     inkscape:zoom="1.0277737"
     inkscape:cx="188.27101"
     inkscape:cy="222.3252"
     inkscape:window-width="1520"
     inkscape:window-height="878"
     inkscape:window-x="95"
     inkscape:window-y="1144"
     inkscape:window-maximized="0"
     inkscape:current-layer="layer1" />
  <defs
     id="defs1">
    <inkscape:path-effect
       effect="bspline"
       id="path-effect3"
       is_visible="true"
       lpeversion="1.3"
       weight="33.333333"
       steps="2"
       helper_size="0"
       apply_no_weight="true"
       apply_with_weight="true"
       only_selected="false"
       uniform="false" />
    <inkscape:path-effect
       effect="bspline"
       id="path-effect2"
       is_visible="true"
       lpeversion="1.3"
       weight="33.333333"
       steps="2"
       helper_size="0"
       apply_no_weight="true"
       apply_with_weight="true"
       only_selected="false"
       uniform="false" />
    <inkscape:path-effect
       effect="bspline"
       id="path-effect3-8"
       is_visible="true"
       lpeversion="1.3"
       weight="33.333333"
       steps="2"
       helper_size="0"
       apply_no_weight="true"
       apply_with_weight="true"
       only_selected="false"
       uniform="false" />
    <inkscape:path-effect
       effect="bspline"
       id="path-effect3-6"
       is_visible="true"
       lpeversion="1.3"
       weight="33.333333"
       steps="2"
       helper_size="0"
       apply_no_weight="true"
       apply_with_weight="true"
       only_selected="false"
       uniform="false" />
    <inkscape:path-effect
       effect="bspline"
       id="path-effect3-6-1"
       is_visible="true"
       lpeversion="1.3"
       weight="33.333333"
       steps="2"
       helper_size="0"
       apply_no_weight="true"
       apply_with_weight="true"
       only_selected="false"
       uniform="false" />
    <inkscape:path-effect
       effect="bspline"
       id="path-effect3-6-8"
       is_visible="true"
       lpeversion="1.3"
       weight="33.333333"
       steps="2"
       helper_size="0"
       apply_no_weight="true"
       apply_with_weight="true"
       only_selected="false"
       uniform="false" />
    <inkscape:path-effect
       effect="bspline"
       id="path-effect3-6-9"
       is_visible="true"
       lpeversion="1.3"
       weight="33.333333"
       steps="2"
       helper_size="0"
       apply_no_weight="true"
       apply_with_weight="true"
       only_selected="false"
       uniform="false" />
    <inkscape:path-effect
       effect="bspline"
       id="path-effect3-6-82"
       is_visible="true"
       lpeversion="1.3"
       weight="33.333333"
       steps="2"
       helper_size="0"
       apply_no_weight="true"
       apply_with_weight="true"
       only_selected="false"
       uniform="false" />
    <inkscape:path-effect
       effect="bspline"
       id="path-effect3-6-9-8"
       is_visible="true"
       lpeversion="1.3"
       weight="33.333333"
       steps="2"
       helper_size="0"
       apply_no_weight="true"
       apply_with_weight="true"
       only_selected="false"
       uniform="false" />
    <inkscape:path-effect
       effect="bspline"
       id="path-effect3-6-9-2"
       is_visible="true"
       lpeversion="1.3"
       weight="33.333333"
       steps="2"
       helper_size="0"
       apply_no_weight="true"
       apply_with_weight="true"
       only_selected="false"
       uniform="false" />
    <inkscape:path-effect
       effect="bspline"
       id="path-effect3-6-9-2-1"
       is_visible="true"
       lpeversion="1.3"
       weight="33.333333"
       steps="2"
       helper_size="0"
       apply_no_weight="true"
       apply_with_weight="true"
       only_selected="false"
       uniform="false" />
    <inkscape:path-effect
       effect="bspline"
       id="path-effect3-6-9-2-0"
       is_visible="true"
       lpeversion="1.3"
       weight="33.333333"
       steps="2"
       helper_size="0"
       apply_no_weight="true"
       apply_with_weight="true"
       only_selected="false"
       uniform="false" />
    <inkscape:path-effect
       effect="bspline"
       id="path-effect3-6-9-2-00"
       is_visible="true"
       lpeversion="1.3"
       weight="33.333333"
       steps="2"
       helper_size="0"
       apply_no_weight="true"
       apply_with_weight="true"
       only_selected="false"
       uniform="false" />
    <inkscape:path-effect
       effect="bspline"
       id="path-effect3-6-9-2-8"
       is_visible="true"
       lpeversion="1.3"
       weight="33.333333"
       steps="2"
       helper_size="0"
       apply_no_weight="true"
       apply_with_weight="true"
       only_selected="false"
       uniform="false" />
    <inkscape:path-effect
       effect="bspline"
       id="path-effect3-6-9-2-9"
       is_visible="true"
       lpeversion="1.3"
       weight="33.333333"
       steps="2"
       helper_size="0"
       apply_no_weight="true"
       apply_with_weight="true"
       only_selected="false"
       uniform="false" />
    <inkscape:path-effect
       effect="bspline"
       id="path-effect3-6-9-2-3"
       is_visible="true"
       lpeversion="1.3"
       weight="33.333333"
       steps="2"
       helper_size="0"
       apply_no_weight="true"
       apply_with_weight="true"
       only_selected="false"
       uniform="false" />
    <inkscape:path-effect
       effect="bspline"
       id="path-effect3-6-9-2-6"
       is_visible="true"
       lpeversion="1.3"
       weight="33.333333"
       steps="2"
       helper_size="0"
       apply_no_weight="true"
       apply_with_weight="true"
       only_selected="false"
       uniform="false" />
    <inkscape:path-effect
       effect="bspline"
       id="path-effect3-6-9-2-6-9"
       is_visible="true"
       lpeversion="1.3"
       weight="33.333333"
       steps="2"
       helper_size="0"
       apply_no_weight="true"
       apply_with_weight="true"
       only_selected="false"
       uniform="false" />
    <inkscape:path-effect
       effect="bspline"
       id="path-effect3-6-9-2-6-2"
       is_visible="true"
       lpeversion="1.3"
       weight="33.333333"
       steps="2"
       helper_size="0"
       apply_no_weight="true"
       apply_with_weight="true"
       only_selected="false"
       uniform="false" />
    <inkscape:path-effect
       effect="bspline"
       id="path-effect3-6-9-2-6-3"
       is_visible="true"
       lpeversion="1.3"
       weight="33.333333"
       steps="2"
       helper_size="0"
       apply_no_weight="true"
       apply_with_weight="true"
       only_selected="false"
       uniform="false" />
    <inkscape:path-effect
       effect="bspline"
       id="path-effect3-6-9-2-6-2-3"
       is_visible="true"
       lpeversion="1.3"
       weight="33.333333"
       steps="2"
       helper_size="0"
       apply_no_weight="true"
       apply_with_weight="true"
       only_selected="false"
       uniform="false" />
    <inkscape:path-effect
       effect="bspline"
       id="path-effect3-6-9-2-6-2-3-1"
       is_visible="true"
       lpeversion="1.3"
       weight="33.333333"
       steps="2"
       helper_size="0"
       apply_no_weight="true"
       apply_with_weight="true"
       only_selected="false"
       uniform="false" />
    <inkscape:path-effect
       effect="bspline"
       id="path-effect3-6-9-2-6-2-3-1-6"
       is_visible="true"
       lpeversion="1.3"
       weight="33.333333"
       steps="2"
       helper_size="0"
       apply_no_weight="true"
       apply_with_weight="true"
       only_selected="false"
       uniform="false" />
    <clipPath
       clipPathUnits="userSpaceOnUse"
       id="clipPath3">
      <ellipse
         style="fill:#000000;stroke:none;stroke-width:6.95931;stroke-dasharray:41.756, 13.9187"
         id="ellipse3"
         cx="85.803825"
         cy="81.218124"
         rx="51.047848"
         ry="51.047997" />
    </clipPath>
    <clipPath
       clipPathUnits="userSpaceOnUse"
       id="clipPath3-1">
      <ellipse
         style="fill:#000000;stroke:none;stroke-width:6.95931;stroke-dasharray:41.756, 13.9187"
         id="ellipse3-3"
         cx="85.803825"
         cy="81.218124"
         rx="51.047848"
         ry="51.047997" />
    </clipPath>
    <clipPath
       clipPathUnits="userSpaceOnUse"
       id="clipPath137">
      <ellipse
         style="fill:#6d4e83;fill-opacity:1;stroke:none;stroke-width:6.95931;stroke-dasharray:41.7559, 13.9187"
         id="ellipse137"
         clip-path="url(#clipPath3-1)"
         ry="51.048"
         rx="51.047848"
         cy="81.218124"
         cx="85.803825"
         transform="matrix(-1.0258375,0.88536797,-1.0111506,-1.1715763,272.67373,131.10123)"
         d="M 136.85167,81.218124 A 51.047848,51.048 0 0 1 85.803825,132.26612 51.047848,51.048 0 0 1 34.755978,81.218124 a 51.047848,51.048 0 0 1 51.047847,-51.048 51.047848,51.048 0 0 1 51.047845,51.048 z" />
    </clipPath>
    <clipPath
       clipPathUnits="userSpaceOnUse"
       id="clipPath138">
      <ellipse
         style="fill:#6d4e83;fill-opacity:1;stroke:none;stroke-width:6.95931;stroke-dasharray:41.7559, 13.9187"
         id="ellipse138"
         clip-path="url(#clipPath3-1)"
         ry="51.048"
         rx="51.047848"
         cy="81.218124"
         cx="85.803825"
         transform="matrix(0.38393584,-0.54576,0.61166028,0.41016674,24.989351,118.17065)"
         d="M 136.85167,81.218124 A 51.047848,51.048 0 0 1 85.803825,132.26612 51.047848,51.048 0 0 1 34.755978,81.218124 a 51.047848,51.048 0 0 1 51.047847,-51.048 51.047848,51.048 0 0 1 51.047845,51.048 z" />
    </clipPath>
    <clipPath
       clipPathUnits="userSpaceOnUse"
       id="clipPath139">
      <ellipse
         style="fill:#6d4e83;fill-opacity:1;stroke:none;stroke-width:6.95931;stroke-dasharray:41.7559, 13.9187"
         id="ellipse139"
         clip-path="url(#clipPath3-1)"
         ry="51.048"
         rx="51.047848"
         cy="81.218124"
         cx="85.803825"
         transform="matrix(-0.4979653,0.42977815,-0.41065359,-0.47580654,181.90293,105.51635)"
         d="M 136.85167,81.218124 A 51.047848,51.048 0 0 1 85.803825,132.26612 51.047848,51.048 0 0 1 34.755978,81.218124 a 51.047848,51.048 0 0 1 51.047847,-51.048 51.047848,51.048 0 0 1 51.047845,51.048 z" />
    </clipPath>
    <clipPath
       clipPathUnits="userSpaceOnUse"
       id="clipPath140">
      <ellipse
         style="fill:#6d4e83;fill-opacity:1;stroke:none;stroke-width:6.95931;stroke-dasharray:41.7559, 13.9187"
         id="ellipse140"
         clip-path="url(#clipPath3-1)"
         ry="51.048"
         rx="51.047848"
         cy="81.218124"
         cx="85.803825"
         transform="matrix(-0.52765403,0.45540155,-0.44585468,-0.51659251,185.41057,106.76175)"
         d="M 136.85167,81.218124 A 51.047848,51.048 0 0 1 85.803825,132.26612 51.047848,51.048 0 0 1 34.755978,81.218124 a 51.047848,51.048 0 0 1 51.047847,-51.048 51.047848,51.048 0 0 1 51.047845,51.048 z" />
    </clipPath>
    <clipPath
       clipPathUnits="userSpaceOnUse"
       id="clipPath141">
      <ellipse
         style="fill:#6d4e83;fill-opacity:1;stroke:none;stroke-width:6.95931;stroke-dasharray:41.7559, 13.9187"
         id="ellipse141"
         clip-path="url(#clipPath3-1)"
         ry="51.048"
         rx="51.047848"
         cy="81.218124"
         cx="85.803825"
         transform="matrix(-0.62559831,0.53993415,-0.5124652,-0.59377122,197.57718,105.68789)"
         d="M 136.85167,81.218124 A 51.047848,51.048 0 0 1 85.803825,132.26612 51.047848,51.048 0 0 1 34.755978,81.218124 a 51.047848,51.048 0 0 1 51.047847,-51.048 51.047848,51.048 0 0 1 51.047845,51.048 z" />
    </clipPath>
    <clipPath
       clipPathUnits="userSpaceOnUse"
       id="clipPath142">
      <ellipse
         style="fill:#6d4e83;fill-opacity:1;stroke:none;stroke-width:6.95931;stroke-dasharray:41.7559, 13.9187"
         id="ellipse142"
         clip-path="url(#clipPath3-1)"
         ry="51.048"
         rx="51.047848"
         cy="81.218124"
         cx="85.803825"
         transform="rotate(139.20356,88.578941,96.54731)"
         d="M 136.85167,81.218124 A 51.047848,51.048 0 0 1 85.803825,132.26612 51.047848,51.048 0 0 1 34.755978,81.218124 a 51.047848,51.048 0 0 1 51.047847,-51.048 51.047848,51.048 0 0 1 51.047845,51.048 z" />
    </clipPath>
    <clipPath
       clipPathUnits="userSpaceOnUse"
       id="clipPath143">
      <ellipse
         style="fill:#6d4e83;fill-opacity:1;stroke:none;stroke-width:6.95931;stroke-dasharray:41.7559, 13.9187"
         id="ellipse143"
         clip-path="url(#clipPath3-1)"
         ry="51.048"
         rx="51.047848"
         cy="81.218124"
         cx="85.803825"
         transform="rotate(-123.81178,108.03654,103.31289)"
         d="M 136.85167,81.218124 A 51.047848,51.048 0 0 1 85.803825,132.26612 51.047848,51.048 0 0 1 34.755978,81.218124 a 51.047848,51.048 0 0 1 51.047847,-51.048 51.047848,51.048 0 0 1 51.047845,51.048 z" />
    </clipPath>
    <clipPath
       clipPathUnits="userSpaceOnUse"
       id="clipPath144">
      <ellipse
         style="fill:#6d4e83;fill-opacity:1;stroke:none;stroke-width:6.95931;stroke-dasharray:41.7559, 13.9187"
         id="ellipse144"
         clip-path="url(#clipPath3-1)"
         ry="51.048"
         rx="51.047848"
         cy="81.218124"
         cx="85.803825"
         transform="rotate(-60.819368,97.459917,32.004011)"
         d="M 136.85167,81.218124 A 51.047848,51.048 0 0 1 85.803825,132.26612 51.047848,51.048 0 0 1 34.755978,81.218124 a 51.047848,51.048 0 0 1 51.047847,-51.048 51.047848,51.048 0 0 1 51.047845,51.048 z" />
    </clipPath>
    <clipPath
       clipPathUnits="userSpaceOnUse"
       id="clipPath145">
      <ellipse
         style="fill:#6d4e83;fill-opacity:1;stroke:none;stroke-width:6.95931;stroke-dasharray:41.7559, 13.9187"
         id="ellipse145"
         clip-path="url(#clipPath3-1)"
         ry="51.048"
         rx="51.047848"
         cy="81.218124"
         cx="85.803825"
         transform="rotate(-49.259922,92.579726,20.793012)"
         d="M 136.85167,81.218124 A 51.047848,51.048 0 0 1 85.803825,132.26612 51.047848,51.048 0 0 1 34.755978,81.218124 a 51.047848,51.048 0 0 1 51.047847,-51.048 51.047848,51.048 0 0 1 51.047845,51.048 z" />
    </clipPath>
    <clipPath
       clipPathUnits="userSpaceOnUse"
       id="clipPath146">
      <ellipse
         style="fill:#6d4e83;fill-opacity:1;stroke:none;stroke-width:6.95931;stroke-dasharray:41.7559, 13.9187"
         id="ellipse146"
         clip-path="url(#clipPath3-1)"
         ry="51.048"
         rx="51.047848"
         cy="81.218124"
         cx="85.803825"
         transform="rotate(-37.721937,81.640526,1.7921284)"
         d="M 136.85167,81.218124 A 51.047848,51.048 0 0 1 85.803825,132.26612 51.047848,51.048 0 0 1 34.755978,81.218124 a 51.047848,51.048 0 0 1 51.047847,-51.048 51.047848,51.048 0 0 1 51.047845,51.048 z" />
    </clipPath>
    <clipPath
       clipPathUnits="userSpaceOnUse"
       id="clipPath147">
      <ellipse
         style="fill:#6d4e83;fill-opacity:1;stroke:none;stroke-width:6.95931;stroke-dasharray:41.7559, 13.9187"
         id="ellipse147"
         clip-path="url(#clipPath3-1)"
         ry="51.048"
         rx="51.047848"
         cy="81.218124"
         cx="85.803825"
         transform="rotate(-37.721937,65.730936,-0.7467105)"
         d="M 136.85167,81.218124 A 51.047848,51.048 0 0 1 85.803825,132.26612 51.047848,51.048 0 0 1 34.755978,81.218124 a 51.047848,51.048 0 0 1 51.047847,-51.048 51.047848,51.048 0 0 1 51.047845,51.048 z" />
    </clipPath>
    <clipPath
       clipPathUnits="userSpaceOnUse"
       id="clipPath148">
      <ellipse
         style="fill:#6d4e83;fill-opacity:1;stroke:none;stroke-width:6.95931;stroke-dasharray:41.7559, 13.9187"
         id="ellipse148"
         clip-path="url(#clipPath3-1)"
         ry="51.048"
         rx="51.047848"
         cy="81.218124"
         cx="85.803825"
         transform="rotate(-37.721937,49.733992,-3.4902894)"
         d="M 136.85167,81.218124 A 51.047848,51.048 0 0 1 85.803825,132.26612 51.047848,51.048 0 0 1 34.755978,81.218124 a 51.047848,51.048 0 0 1 51.047847,-51.048 51.047848,51.048 0 0 1 51.047845,51.048 z" />
    </clipPath>
    <clipPath
       clipPathUnits="userSpaceOnUse"
       id="clipPath149">
      <ellipse
         style="fill:#6d4e83;fill-opacity:1;stroke:none;stroke-width:6.95931;stroke-dasharray:41.7559, 13.9187"
         id="ellipse149"
         clip-path="url(#clipPath3-1)"
         ry="51.048"
         rx="51.047848"
         cy="81.218124"
         cx="85.803825"
         transform="rotate(-37.721937,35.970665,-1.3383937)"
         d="M 136.85167,81.218124 A 51.047848,51.048 0 0 1 85.803825,132.26612 51.047848,51.048 0 0 1 34.755978,81.218124 a 51.047848,51.048 0 0 1 51.047847,-51.048 51.047848,51.048 0 0 1 51.047845,51.048 z" />
    </clipPath>
    <clipPath
       clipPathUnits="userSpaceOnUse"
       id="clipPath150">
      <ellipse
         style="fill:#6d4e83;fill-opacity:1;stroke:none;stroke-width:6.95931;stroke-dasharray:41.7559, 13.9187"
         id="ellipse150"
         clip-path="url(#clipPath3-1)"
         ry="51.048"
         rx="51.047848"
         cy="81.218124"
         cx="85.803825"
         transform="rotate(-37.721937,26.355823,4.5722679)"
         d="M 136.85167,81.218124 A 51.047848,51.048 0 0 1 85.803825,132.26612 51.047848,51.048 0 0 1 34.755978,81.218124 a 51.047848,51.048 0 0 1 51.047847,-51.048 51.047848,51.048 0 0 1 51.047845,51.048 z" />
    </clipPath>
    <clipPath
       clipPathUnits="userSpaceOnUse"
       id="clipPath151">
      <ellipse
         style="fill:#6d4e83;fill-opacity:1;stroke:none;stroke-width:6.95931;stroke-dasharray:41.7559, 13.9187"
         id="ellipse151"
         clip-path="url(#clipPath3-1)"
         ry="51.048"
         rx="51.047848"
         cy="81.218124"
         cx="85.803825"
         transform="rotate(-123.81178,93.17106,111.52375)"
         d="M 136.85167,81.218124 A 51.047848,51.048 0 0 1 85.803825,132.26612 51.047848,51.048 0 0 1 34.755978,81.218124 a 51.047848,51.048 0 0 1 51.047847,-51.048 51.047848,51.048 0 0 1 51.047845,51.048 z" />
    </clipPath>
    <clipPath
       clipPathUnits="userSpaceOnUse"
       id="clipPath152">
      <ellipse
         style="fill:#6d4e83;fill-opacity:1;stroke:none;stroke-width:6.95931;stroke-dasharray:41.7559, 13.9187"
         id="ellipse152"
         clip-path="url(#clipPath3-1)"
         ry="51.048"
         rx="51.047848"
         cy="81.218124"
         cx="85.803825"
         transform="rotate(-123.81178,96.512596,108.777)"
         d="M 136.85167,81.218124 A 51.047848,51.048 0 0 1 85.803825,132.26612 51.047848,51.048 0 0 1 34.755978,81.218124 a 51.047848,51.048 0 0 1 51.047847,-51.048 51.047848,51.048 0 0 1 51.047845,51.048 z" />
    </clipPath>
    <clipPath
       clipPathUnits="userSpaceOnUse"
       id="clipPath153">
      <ellipse
         style="fill:#6d4e83;fill-opacity:1;stroke:none;stroke-width:6.95931;stroke-dasharray:41.7559, 13.9187"
         id="ellipse153"
         clip-path="url(#clipPath3-1)"
         ry="51.048"
         rx="51.047848"
         cy="81.218124"
         cx="85.803825"
         transform="rotate(-123.81178,100.00207,106.01749)"
         d="M 136.85167,81.218124 A 51.047848,51.048 0 0 1 85.803825,132.26612 51.047848,51.048 0 0 1 34.755978,81.218124 a 51.047848,51.048 0 0 1 51.047847,-51.048 51.047848,51.048 0 0 1 51.047845,51.048 z" />
    </clipPath>
    <clipPath
       clipPathUnits="userSpaceOnUse"
       id="clipPath154">
      <ellipse
         style="fill:#6d4e83;fill-opacity:1;stroke:none;stroke-width:6.95931;stroke-dasharray:41.7559, 13.9187"
         id="ellipse154"
         clip-path="url(#clipPath3-1)"
         ry="51.048"
         rx="51.047848"
         cy="81.218124"
         cx="85.803825"
         transform="rotate(-123.81178,103.55018,104.40999)"
         d="M 136.85167,81.218124 A 51.047848,51.048 0 0 1 85.803825,132.26612 51.047848,51.048 0 0 1 34.755978,81.218124 a 51.047848,51.048 0 0 1 51.047847,-51.048 51.047848,51.048 0 0 1 51.047845,51.048 z" />
    </clipPath>
    <clipPath
       clipPathUnits="userSpaceOnUse"
       id="clipPath155">
      <ellipse
         style="fill:#6d4e83;fill-opacity:1;stroke:none;stroke-width:6.95931;stroke-dasharray:41.7559, 13.9187"
         id="ellipse155"
         clip-path="url(#clipPath3-1)"
         ry="51.048"
         rx="51.047848"
         cy="81.218124"
         cx="85.803825"
         transform="rotate(-128.32863,111.87926,102.44649)"
         d="M 136.85167,81.218124 A 51.047848,51.048 0 0 1 85.803825,132.26612 51.047848,51.048 0 0 1 34.755978,81.218124 a 51.047848,51.048 0 0 1 51.047847,-51.048 51.047848,51.048 0 0 1 51.047845,51.048 z" />
    </clipPath>
    <clipPath
       clipPathUnits="userSpaceOnUse"
       id="clipPath156">
      <ellipse
         style="fill:#6d4e83;fill-opacity:1;stroke:none;stroke-width:6.95931;stroke-dasharray:41.7559, 13.9187"
         id="ellipse156"
         clip-path="url(#clipPath3-1)"
         ry="51.048"
         rx="51.047848"
         cy="81.218124"
         cx="85.803825"
         transform="translate(2.2369385e-5,-1.2786865e-4)" />
    </clipPath>
    <clipPath
       clipPathUnits="userSpaceOnUse"
       id="clipPath157">
      <ellipse
         style="fill:#6d4e83;fill-opacity:1;stroke:none;stroke-width:6.95931;stroke-dasharray:41.7559, 13.9187"
         id="ellipse157"
         clip-path="url(#clipPath3-1)"
         ry="51.048"
         rx="51.047848"
         cy="81.218124"
         cx="85.803825"
         transform="translate(2.2369385e-5,-1.2786865e-4)" />
    </clipPath>
    <clipPath
       clipPathUnits="userSpaceOnUse"
       id="clipPath158">
      <ellipse
         style="fill:#6d4e83;fill-opacity:1;stroke:none;stroke-width:6.95931;stroke-dasharray:41.7559, 13.9187"
         id="ellipse158"
         clip-path="url(#clipPath3-1)"
         ry="51.048"
         rx="51.047848"
         cy="81.218124"
         cx="85.803825"
         transform="translate(2.2369385e-5,-1.2786865e-4)" />
    </clipPath>
    <clipPath
       clipPathUnits="userSpaceOnUse"
       id="clipPath159">
      <ellipse
         style="fill:#6d4e83;fill-opacity:1;stroke:none;stroke-width:6.95931;stroke-dasharray:41.7559, 13.9187"
         id="ellipse159"
         clip-path="url(#clipPath3-1)"
         ry="51.048"
         rx="51.047848"
         cy="81.218124"
         cx="85.803825"
         transform="translate(2.2369385e-5,-1.2786865e-4)" />
    </clipPath>
    <clipPath
       clipPathUnits="userSpaceOnUse"
       id="clipPath160">
      <ellipse
         style="fill:#6d4e83;fill-opacity:1;stroke:none;stroke-width:6.95931;stroke-dasharray:41.7559, 13.9187"
         id="ellipse160"
         clip-path="url(#clipPath3-1)"
         ry="51.048"
         rx="51.047848"
         cy="81.218124"
         cx="85.803825"
         transform="translate(2.2369385e-5,-1.2786865e-4)" />
    </clipPath>
  </defs>
  <g
     inkscape:label="Layer 1"
     inkscape:groupmode="layer"
     id="layer1"
     transform="translate(-34.756,-30.170124)">
    <ellipse
       style="fill:#6d4e83;fill-opacity:1;stroke:none;stroke-width:6.95931;stroke-dasharray:41.7559, 13.9187"
       id="path1"
       clip-path="url(#clipPath160)"
       ry="51.048"
       rx="51.047848"
       cy="81.218124"
       cx="85.803825" />
    <ellipse
       style="fill:none;stroke:#fefefe;stroke-width:4;stroke-dasharray:none;stroke-dashoffset:0;stroke-opacity:1"
       id="path1-2"
       cx="110.58405"
       cy="96.756203"
       rx="51.047848"
       ry="51.048"
       clip-path="url(#clipPath159)" />
    <ellipse
       style="fill:none;stroke:#fefefe;stroke-width:4;stroke-dasharray:none;stroke-dashoffset:0;stroke-opacity:1"
       id="path1-2-1"
       cx="115.89648"
       cy="100.60982"
       rx="46.031631"
       ry="47.238586"
       clip-path="url(#clipPath158)" />
    <ellipse
       style="fill:none;stroke:#fefefe;stroke-width:4;stroke-dasharray:none;stroke-dashoffset:0;stroke-opacity:1"
       id="path1-2-1-6"
       cx="121.46073"
       cy="104.50241"
       rx="40.779099"
       ry="43.434219"
       clip-path="url(#clipPath157)" />
    <ellipse
       style="fill:none;stroke:#fefefe;stroke-width:4;stroke-dasharray:none;stroke-dashoffset:0;stroke-opacity:1"
       id="path1-2-1-1"
       cx="105.62035"
       cy="92.935356"
       rx="55.829781"
       ry="54.743809"
       clip-path="url(#clipPath156)" />
    <path
       style="fill:none;stroke:#ffffff;stroke-width:3;stroke-linecap:butt;stroke-linejoin:miter;stroke-dasharray:none;stroke-opacity:1"
       d="m 85.200423,131.05901 c -2.735426,-4.74677 -5.470848,-9.49353 -7.039699,-15.44718 -1.568851,-5.95364 -1.971112,-13.11387 -0.603368,-20.314545 1.367744,-7.200675 4.505374,-14.441359 8.729245,-20.113383 4.22387,-5.672024 9.533707,-9.77508 14.843649,-13.878217"
       id="path2"
       inkscape:path-effect="#path-effect3"
       inkscape:original-d="m 85.200423,131.05901 c -2.735424,-4.74677 -5.470848,-9.49353 -8.206274,-14.2403 -0.402276,-7.16052 -0.804535,-14.32075 -1.206805,-21.481126 3.137755,-7.240974 6.275385,-14.481659 9.413079,-21.722487 5.310047,-4.10322 15.929827,-12.309412 15.929827,-12.309412"
       sodipodi:nodetypes="ccccc"
       transform="rotate(128.32863,111.8793,102.44643)"
       clip-path="url(#clipPath155)" />
    <path
       style="fill:none;stroke:#ffffff;stroke-width:3;stroke-linecap:butt;stroke-linejoin:miter;stroke-dasharray:none;stroke-opacity:1"
       d="m 85.200423,131.05901 c -2.735426,-4.74677 -5.470848,-9.49353 -7.039699,-15.44718 -1.568851,-5.95364 -1.971112,-13.11387 -0.603368,-20.314545 1.367744,-7.200675 4.505374,-14.441359 8.729245,-20.113383 4.22387,-5.672024 9.533707,-9.77508 14.843649,-13.878217"
       id="path2-7"
       inkscape:path-effect="#path-effect3-6"
       inkscape:original-d="m 85.200423,131.05901 c -2.735424,-4.74677 -5.470848,-9.49353 -8.206274,-14.2403 -0.402276,-7.16052 -0.804535,-14.32075 -1.206805,-21.481126 3.137755,-7.240974 6.275385,-14.481659 9.413079,-21.722487 5.310047,-4.10322 15.929827,-12.309412 15.929827,-12.309412"
       sodipodi:nodetypes="ccccc"
       transform="rotate(123.81178,103.55023,104.40993)"
       clip-path="url(#clipPath154)" />
    <path
       style="fill:none;stroke:#ffffff;stroke-width:3;stroke-linecap:butt;stroke-linejoin:miter;stroke-dasharray:none;stroke-opacity:1"
       d="m 85.200423,131.05901 c -2.735426,-4.74677 -5.470848,-9.49353 -7.039699,-15.44718 -1.568851,-5.95364 -1.971112,-13.11387 -0.603368,-20.314545 1.367744,-7.200675 4.505374,-14.441359 8.729245,-20.113383 4.22387,-5.672024 9.533707,-9.77508 14.843649,-13.878217"
       id="path2-7-1"
       inkscape:path-effect="#path-effect3-6-1"
       inkscape:original-d="m 85.200423,131.05901 c -2.735424,-4.74677 -5.470848,-9.49353 -8.206274,-14.2403 -0.402276,-7.16052 -0.804535,-14.32075 -1.206805,-21.481126 3.137755,-7.240974 6.275385,-14.481659 9.413079,-21.722487 5.310047,-4.10322 15.929827,-12.309412 15.929827,-12.309412"
       sodipodi:nodetypes="ccccc"
       transform="rotate(123.81178,100.00212,106.01743)"
       clip-path="url(#clipPath153)" />
    <path
       style="fill:none;stroke:#ffffff;stroke-width:3;stroke-linecap:butt;stroke-linejoin:miter;stroke-dasharray:none;stroke-opacity:1"
       d="m 85.200423,131.05901 c -2.735426,-4.74677 -5.470848,-9.49353 -7.039699,-15.44718 -1.568851,-5.95364 -1.971112,-13.11387 -0.603368,-20.314545 1.367744,-7.200675 4.505374,-14.441359 8.729245,-20.113383 4.22387,-5.672024 9.533707,-9.77508 14.843649,-13.878217"
       id="path2-7-7"
       inkscape:path-effect="#path-effect3-6-8"
       inkscape:original-d="m 85.200423,131.05901 c -2.735424,-4.74677 -5.470848,-9.49353 -8.206274,-14.2403 -0.402276,-7.16052 -0.804535,-14.32075 -1.206805,-21.481126 3.137755,-7.240974 6.275385,-14.481659 9.413079,-21.722487 5.310047,-4.10322 15.929827,-12.309412 15.929827,-12.309412"
       sodipodi:nodetypes="ccccc"
       transform="rotate(123.81178,96.512642,108.77694)"
       clip-path="url(#clipPath152)" />
    <path
       style="fill:none;stroke:#ffffff;stroke-width:3;stroke-linecap:butt;stroke-linejoin:miter;stroke-dasharray:none;stroke-opacity:1"
       d="m 85.200423,131.05901 c -2.735426,-4.74677 -5.470848,-9.49353 -7.039699,-15.44718 -1.568851,-5.95364 -1.971112,-13.11387 -0.603368,-20.314545 1.367744,-7.200675 4.505374,-14.441359 8.729245,-20.113383 4.22387,-5.672024 9.533707,-9.77508 14.843649,-13.878217"
       id="path2-7-5"
       inkscape:path-effect="#path-effect3-6-9"
       inkscape:original-d="m 85.200423,131.05901 c -2.735424,-4.74677 -5.470848,-9.49353 -8.206274,-14.2403 -0.402276,-7.16052 -0.804535,-14.32075 -1.206805,-21.481126 3.137755,-7.240974 6.275385,-14.481659 9.413079,-21.722487 5.310047,-4.10322 15.929827,-12.309412 15.929827,-12.309412"
       sodipodi:nodetypes="ccccc"
       transform="rotate(123.81178,93.171105,111.52369)"
       clip-path="url(#clipPath151)" />
    <path
       style="fill:none;stroke:#ffffff;stroke-width:3;stroke-linecap:butt;stroke-linejoin:miter;stroke-dasharray:none;stroke-opacity:1"
       d="m 85.200423,131.05901 c -2.735426,-4.74677 -5.470848,-9.49353 -7.039699,-15.44718 -1.568851,-5.95364 -1.971112,-13.11387 -0.603368,-20.314545 1.367744,-7.200675 4.505374,-14.441359 8.729245,-20.113383 4.22387,-5.672024 9.533707,-9.77508 14.843649,-13.878217"
       id="path2-7-5-2"
       inkscape:path-effect="#path-effect3-6-9-2"
       inkscape:original-d="m 85.200423,131.05901 c -2.735424,-4.74677 -5.470848,-9.49353 -8.206274,-14.2403 -0.402276,-7.16052 -0.804535,-14.32075 -1.206805,-21.481126 3.137755,-7.240974 6.275385,-14.481659 9.413079,-21.722487 5.310047,-4.10322 15.929827,-12.309412 15.929827,-12.309412"
       sodipodi:nodetypes="ccccc"
       transform="rotate(37.721937,26.356021,4.5722371)"
       clip-path="url(#clipPath150)" />
    <path
       style="fill:none;stroke:#ffffff;stroke-width:3;stroke-linecap:butt;stroke-linejoin:miter;stroke-dasharray:none;stroke-opacity:1"
       d="m 85.200423,131.05901 c -2.735426,-4.74677 -5.470848,-9.49353 -7.039699,-15.44718 -1.568851,-5.95364 -1.971112,-13.11387 -0.603368,-20.314545 1.367744,-7.200675 4.505374,-14.441359 8.729245,-20.113383 4.22387,-5.672024 9.533707,-9.77508 14.843649,-13.878217"
       id="path2-7-5-2-2"
       inkscape:path-effect="#path-effect3-6-9-2-1"
       inkscape:original-d="m 85.200423,131.05901 c -2.735424,-4.74677 -5.470848,-9.49353 -8.206274,-14.2403 -0.402276,-7.16052 -0.804535,-14.32075 -1.206805,-21.481126 3.137755,-7.240974 6.275385,-14.481659 9.413079,-21.722487 5.310047,-4.10322 15.929827,-12.309412 15.929827,-12.309412"
       sodipodi:nodetypes="ccccc"
       transform="rotate(37.721937,35.970864,-1.3384243)"
       clip-path="url(#clipPath149)" />
    <path
       style="fill:none;stroke:#ffffff;stroke-width:3;stroke-linecap:butt;stroke-linejoin:miter;stroke-dasharray:none;stroke-opacity:1"
       d="m 85.200423,131.05901 c -2.735426,-4.74677 -5.470848,-9.49353 -7.039699,-15.44718 -1.568851,-5.95364 -1.971112,-13.11387 -0.603368,-20.314545 1.367744,-7.200675 4.505374,-14.441359 8.729245,-20.113383 4.22387,-5.672024 9.533707,-9.77508 14.843649,-13.878217"
       id="path2-7-5-2-8"
       inkscape:path-effect="#path-effect3-6-9-2-0"
       inkscape:original-d="m 85.200423,131.05901 c -2.735424,-4.74677 -5.470848,-9.49353 -8.206274,-14.2403 -0.402276,-7.16052 -0.804535,-14.32075 -1.206805,-21.481126 3.137755,-7.240974 6.275385,-14.481659 9.413079,-21.722487 5.310047,-4.10322 15.929827,-12.309412 15.929827,-12.309412"
       sodipodi:nodetypes="ccccc"
       transform="rotate(37.721937,49.734191,-3.4903198)"
       clip-path="url(#clipPath148)" />
    <path
       style="fill:none;stroke:#ffffff;stroke-width:3;stroke-linecap:butt;stroke-linejoin:miter;stroke-dasharray:none;stroke-opacity:1"
       d="m 85.200423,131.05901 c -2.735426,-4.74677 -5.470848,-9.49353 -7.039699,-15.44718 -1.568851,-5.95364 -1.971112,-13.11387 -0.603368,-20.314545 1.367744,-7.200675 4.505374,-14.441359 8.729245,-20.113383 4.22387,-5.672024 9.533707,-9.77508 14.843649,-13.878217"
       id="path2-7-5-2-5"
       inkscape:path-effect="#path-effect3-6-9-2-00"
       inkscape:original-d="m 85.200423,131.05901 c -2.735424,-4.74677 -5.470848,-9.49353 -8.206274,-14.2403 -0.402276,-7.16052 -0.804535,-14.32075 -1.206805,-21.481126 3.137755,-7.240974 6.275385,-14.481659 9.413079,-21.722487 5.310047,-4.10322 15.929827,-12.309412 15.929827,-12.309412"
       sodipodi:nodetypes="ccccc"
       transform="rotate(37.721937,65.731135,-0.74674066)"
       clip-path="url(#clipPath147)" />
    <path
       style="fill:none;stroke:#ffffff;stroke-width:3;stroke-linecap:butt;stroke-linejoin:miter;stroke-dasharray:none;stroke-opacity:1"
       d="m 85.200423,131.05901 c -2.735426,-4.74677 -5.470848,-9.49353 -7.039699,-15.44718 -1.568851,-5.95364 -1.971112,-13.11387 -0.603368,-20.314545 1.367744,-7.200675 4.505374,-14.441359 8.729245,-20.113383 4.22387,-5.672024 9.533707,-9.77508 14.843649,-13.878217"
       id="path2-7-5-2-9"
       inkscape:path-effect="#path-effect3-6-9-2-8"
       inkscape:original-d="m 85.200423,131.05901 c -2.735424,-4.74677 -5.470848,-9.49353 -8.206274,-14.2403 -0.402276,-7.16052 -0.804535,-14.32075 -1.206805,-21.481126 3.137755,-7.240974 6.275385,-14.481659 9.413079,-21.722487 5.310047,-4.10322 15.929827,-12.309412 15.929827,-12.309412"
       sodipodi:nodetypes="ccccc"
       transform="rotate(37.721937,81.640725,1.7920985)"
       clip-path="url(#clipPath146)" />
    <path
       style="fill:none;stroke:#ffffff;stroke-width:3;stroke-linecap:butt;stroke-linejoin:miter;stroke-dasharray:none;stroke-opacity:1"
       d="m 85.200423,131.05901 c -2.735426,-4.74677 -5.470848,-9.49353 -7.039699,-15.44718 -1.568851,-5.95364 -1.971112,-13.11387 -0.603368,-20.314545 1.367744,-7.200675 4.505374,-14.441359 8.729245,-20.113383 4.22387,-5.672024 9.533707,-9.77508 14.843649,-13.878217"
       id="path2-7-5-2-56"
       inkscape:path-effect="#path-effect3-6-9-2-9"
       inkscape:original-d="m 85.200423,131.05901 c -2.735424,-4.74677 -5.470848,-9.49353 -8.206274,-14.2403 -0.402276,-7.16052 -0.804535,-14.32075 -1.206805,-21.481126 3.137755,-7.240974 6.275385,-14.481659 9.413079,-21.722487 5.310047,-4.10322 15.929827,-12.309412 15.929827,-12.309412"
       sodipodi:nodetypes="ccccc"
       transform="rotate(49.259922,92.579877,20.792974)"
       clip-path="url(#clipPath145)" />
    <path
       style="fill:none;stroke:#ffffff;stroke-width:3;stroke-linecap:butt;stroke-linejoin:miter;stroke-dasharray:none;stroke-opacity:1"
       d="m 85.200423,131.05901 c -2.735426,-4.74677 -5.470848,-9.49353 -7.039699,-15.44718 -1.568851,-5.95364 -1.971112,-13.11387 -0.603368,-20.314545 1.367744,-7.200675 4.505374,-14.441359 8.729245,-20.113383 4.22387,-5.672024 9.533707,-9.77508 14.843649,-13.878217"
       id="path2-7-5-2-84"
       inkscape:path-effect="#path-effect3-6-9-2-3"
       inkscape:original-d="m 85.200423,131.05901 c -2.735424,-4.74677 -5.470848,-9.49353 -8.206274,-14.2403 -0.402276,-7.16052 -0.804535,-14.32075 -1.206805,-21.481126 3.137755,-7.240974 6.275385,-14.481659 9.413079,-21.722487 5.310047,-4.10322 15.929827,-12.309412 15.929827,-12.309412"
       sodipodi:nodetypes="ccccc"
       transform="rotate(60.819368,97.460037,32.003967)"
       clip-path="url(#clipPath144)" />
    <path
       style="fill:none;stroke:#ffffff;stroke-width:3;stroke-linecap:butt;stroke-linejoin:miter;stroke-dasharray:none;stroke-opacity:1"
       d="m 85.200423,131.05901 c -2.735426,-4.74677 -5.470848,-9.49353 -7.039699,-15.44718 -1.568851,-5.95364 -1.971112,-13.11387 -0.603368,-20.314545 1.367744,-7.200675 4.505374,-14.441359 8.729245,-20.113383 4.22387,-5.672024 9.533707,-9.77508 14.843649,-13.878217"
       id="path2-5"
       inkscape:path-effect="#path-effect3-8"
       inkscape:original-d="m 85.200423,131.05901 c -2.735424,-4.74677 -5.470848,-9.49353 -8.206274,-14.2403 -0.402276,-7.16052 -0.804535,-14.32075 -1.206805,-21.481126 3.137755,-7.240974 6.275385,-14.481659 9.413079,-21.722487 5.310047,-4.10322 15.929827,-12.309412 15.929827,-12.309412"
       sodipodi:nodetypes="ccccc"
       transform="rotate(123.81178,108.03659,103.31283)"
       clip-path="url(#clipPath143)" />
    <path
       style="fill:none;stroke:#ffffff;stroke-width:3;stroke-linecap:butt;stroke-linejoin:miter;stroke-dasharray:none;stroke-opacity:1"
       d="m 76.26784,103.41732 c 0.255312,-3.689479 0.51062,-7.378884 2.126281,-10.967642 1.615661,-3.588757 4.591547,-7.076581 7.567493,-10.564475"
       id="path2-7-5-2-6"
       inkscape:path-effect="#path-effect3-6-9-2-6"
       inkscape:original-d="m 76.26784,103.41732 c 0,0 0.510619,-7.378884 0.765937,-11.068436 2.976005,-3.487963 8.927837,-10.463681 8.927837,-10.463681"
       sodipodi:nodetypes="ccc"
       transform="rotate(-139.20356,88.578929,96.547242)"
       clip-path="url(#clipPath142)" />
    <path
       style="fill:none;stroke:#ffffff;stroke-width:2.41525;stroke-linecap:butt;stroke-linejoin:miter;stroke-dasharray:none;stroke-opacity:1"
       d="m 76.26784,103.41732 c 0.255312,-3.689479 0.51062,-7.378884 2.126281,-10.967642 1.615661,-3.588757 4.591547,-7.076581 7.567493,-10.564475"
       id="path2-7-5-2-6-7"
       inkscape:path-effect="#path-effect3-6-9-2-6-9"
       inkscape:original-d="m 76.26784,103.41732 c 0,0 0.510619,-7.378884 0.765937,-11.068436 2.976005,-3.487963 8.927837,-10.463681 8.927837,-10.463681"
       sodipodi:nodetypes="ccc"
       transform="matrix(-0.9160878,-0.83302638,0.79064646,-0.96519158,97.436312,266.59594)"
       clip-path="url(#clipPath141)" />
    <path
       style="fill:none;stroke:#ffffff;stroke-width:2.06897;stroke-linecap:butt;stroke-linejoin:miter;stroke-dasharray:none;stroke-opacity:1"
       d="m 76.26784,103.41732 c 0.255312,-3.689479 0.51062,-7.378884 2.126281,-10.967642 1.615661,-3.588757 4.591547,-7.076581 7.567493,-10.564475"
       id="path2-7-5-2-6-75"
       inkscape:path-effect="#path-effect3-6-9-2-6-2"
       inkscape:original-d="m 76.26784,103.41732 c 0,0 0.510619,-7.378884 0.765937,-11.068436 2.976005,-3.487963 8.927837,-10.463681 8.927837,-10.463681"
       sodipodi:nodetypes="ccc"
       transform="matrix(-1.086134,-0.9574802,0.93740795,-1.1093908,101.30143,295.96733)"
       clip-path="url(#clipPath140)" />
    <path
       style="fill:none;stroke:#ffffff;stroke-width:1.92894;stroke-linecap:butt;stroke-linejoin:miter;stroke-dasharray:none;stroke-opacity:1"
       d="m 76.26784,103.41732 c 0.255312,-3.689479 0.51062,-7.378884 2.126281,-10.967642 1.615661,-3.588757 4.591547,-7.076581 7.567493,-10.564475"
       id="path2-7-5-2-6-75-7"
       inkscape:path-effect="#path-effect3-6-9-2-6-2-3"
       inkscape:original-d="m 76.26784,103.41732 c 0,0 0.510619,-7.378884 0.765937,-11.068436 2.976005,-3.487963 8.927837,-10.463681 8.927837,-10.463681"
       sodipodi:nodetypes="ccc"
       transform="matrix(-1.1508894,-1.0395551,0.99329627,-1.2044874,104.54118,316.1911)"
       clip-path="url(#clipPath139)" />
    <path
       style="fill:none;stroke:#ffffff;stroke-width:2.10278;stroke-linecap:butt;stroke-linejoin:miter;stroke-dasharray:none;stroke-opacity:1"
       d="m 76.26784,103.41732 c 0.255312,-3.689479 0.51062,-7.378884 2.126281,-10.967642 1.615661,-3.588757 4.591547,-7.076581 7.567493,-10.564475"
       id="path2-7-5-2-6-75-7-5"
       inkscape:path-effect="#path-effect3-6-9-2-6-2-3-1"
       inkscape:original-d="m 76.26784,103.41732 c 0,0 0.510619,-7.378884 0.765937,-11.068436 2.976005,-3.487963 8.927837,-10.463681 8.927837,-10.463681"
       sodipodi:nodetypes="ccc"
       transform="matrix(0.83486443,1.1108546,-1.2449898,0.78147335,126.25856,-120.10688)"
       clip-path="url(#clipPath138)" />
    <path
       style="fill:none;stroke:#ffffff;stroke-width:4.3444;stroke-linecap:butt;stroke-linejoin:miter;stroke-dasharray:none;stroke-opacity:1"
       d="m 76.26784,103.41732 c 0.255312,-3.689479 0.51062,-7.378884 2.126281,-10.967642 1.615661,-3.588757 4.591547,-7.076581 7.567493,-10.564475"
       id="path2-7-5-2-6-4"
       sodipodi:nodetypes="ccc"
       transform="matrix(-0.55866838,-0.42218938,0.48216904,-0.48917255,89.121261,179.25095)"
       inkscape:original-d="m 76.26784,103.41732 c 0,0 0.510619,-7.378884 0.765937,-11.068436 2.976005,-3.487963 8.927837,-10.463681 8.927837,-10.463681"
       inkscape:path-effect="#path-effect3-6-9-2-6-3"
       clip-path="url(#clipPath137)" />
  </g>
</svg>
